<?xml version="1.0" standalone="no"?>
<!DOCTYPE svg PUBLIC "-//W3C//DTD SVG 20010904//EN" "http://www.w3.org/TR/2001/REC-SVG-20010904/DTD/svg10.dtd">
<!-- Created using Karbon, part of Calligra: http://www.calligra.org/karbon -->
<svg xmlns="http://www.w3.org/2000/svg" xmlns:xlink="http://www.w3.org/1999/xlink" width="12.8pt" height="12.8pt">
<defs/>
<g id="layer0">
  <path id="shape0" transform="translate(0.5058, 5.1094)" fill="#ffffff" d="M2.7676 8.88178e-16L2.7676 1.4492L0 1.4492L0 3.9492L2.7246 3.9492L2.72265 5.4121L5.82225 2.7734L2.76755 0Z"/>
  <path id="path816" transform="translate(5.69835, 3.75)" fill="#ffffff" d="M9.77982 2.87196C9.78652 2.87196 9.83353 2.9122 9.92074 2.99269C10.008 3.07317 10.0516 3.2066 10.0516 3.39298L10.0516 3.78692L9.76974 4.04743L9.31172 4.47949L8.03828 5.69944C7.79668 5.93242 7.54839 6.17387 7.29334 6.42379L6.53332 7.1799C5.93937 7.77715 5.35214 8.22086 4.77162 8.51105C4.19111 8.80117 3.59382 8.94631 2.97975 8.94631C2.53346 8.94631 2.07542 8.87325 1.60564 8.72704C1.13586 8.58092 0.763391 8.36912 0.488236 8.09165C0.213079 7.81425 0.055367 7.48065 0.0151001 7.09095L0.0251668 7.04647C0.0620784 6.661 0.149323 6.30094 0.286902 5.96631C0.42448 5.63167 0.698796 5.21867 1.10986 4.7273C1.52092 4.23593 1.78013 3.79115 1.88751 3.39298C1.99489 2.9948 2.12659 2.5945 2.28263 2.19209C2.43867 1.78968 2.63496 1.41374 2.87154 1.06428C3.1081 0.714813 3.40674 0.450067 3.76747 0.27004C4.1282 0.0900132 4.52164 0 4.94779 0C5.34375 0 5.73719 0.077306 6.12811 0.231917C6.51901 0.386528 6.88898 0.590912 7.238 0.845071C7.58696 1.09922 7.92922 1.35762 8.26478 1.62024ZM5.97964 2.70676L5.97964 2.59239C5.97964 2.38059 5.95027 2.21327 5.89155 2.09043C5.83283 1.96759 5.75649 1.90617 5.66253 1.90617C5.61891 1.90617 5.5669 1.92417 5.5065 1.96018C5.4461 1.99618 5.36389 2.06078 5.25986 2.15397L5.11893 2.28105C5.03504 2.35306 4.94192 2.40707 4.83958 2.44307C4.73723 2.47908 4.51996 2.49708 4.18776 2.49708C4.03004 2.49708 3.87569 2.49073 3.72469 2.47802C3.60389 2.47802 3.4856 2.45896 3.36983 2.42084C3.25407 2.38271 3.18444 2.2874 3.16095 2.13491L3.14585 2.02053C3.13914 1.98665 3.13075 1.95912 3.12068 1.93794C3.11062 1.91676 3.09384 1.90617 3.07035 1.90617C2.99317 1.90617 2.8858 1.98454 2.74822 2.14126C2.61064 2.29799 2.47138 2.56591 2.33045 2.94503C2.18951 3.32414 2.11904 3.66408 2.11904 3.96483C2.11904 4.363 2.28095 4.62987 2.60476 4.76542C2.92857 4.90097 3.36397 4.96874 3.91092 4.96874C4.2599 4.96874 4.53925 4.92215 4.74897 4.82896C4.9587 4.73577 5.15249 4.58539 5.33033 4.37783C5.50818 4.17027 5.66085 3.88646 5.78836 3.52641C5.91588 3.16635 5.97964 2.89314 5.97964 2.70676ZM4.75401 8.91134C5.32278 8.63813 5.84038 8.26855 6.30681 7.80259C6.77322 7.33663 7.23124 6.87068 7.68093 6.40473L10.0516 3.93941L10.0516 4.11732L7.08193 7.79619L6.87558 8.0758C6.79839 8.18597 6.6868 8.32676 6.54086 8.49833C6.39487 8.6699 6.23886 8.82875 6.07277 8.97488C5.90665 9.12101 5.76068 9.23643 5.63485 9.32115C5.50902 9.40587 5.39157 9.47474 5.28251 9.52769C5.17345 9.58064 5.05434 9.63146 4.92514 9.68014C4.79595 9.7289 4.63573 9.77438 4.44446 9.81674C4.25319 9.8591 4.05605 9.88981 3.85304 9.90893C3.65003 9.92798 3.42772 9.9375 3.18612 9.9375C2.23985 9.9375 1.48652 9.75427 0.926139 9.38789C0.365758 9.02143 0.0570447 8.48881 0 7.78987C0.184557 8.29392 0.578836 8.67516 1.18284 8.93359C1.78684 9.19194 2.39253 9.32115 2.99988 9.32115C3.60053 9.32115 4.18524 9.18455 4.75401 8.91134ZM7.95777 2.96727C7.95777 2.83595 7.93507 2.71311 7.88981 2.59874C7.84448 2.48437 7.78492 2.41025 7.7111 2.37636L7.54 2.29376C7.52317 2.28528 7.50723 2.27893 7.49214 2.27469C7.47706 2.27046 7.46112 2.26834 7.44434 2.26834C7.36715 2.26834 7.30258 2.31388 7.25055 2.40495C7.19853 2.49602 7.17252 2.61356 7.17252 2.75759L7.17252 4.12368C7.17252 4.2804 7.20106 4.40642 7.2581 4.50173C7.31513 4.59704 7.38562 4.6447 7.46951 4.6447L7.53994 4.63199L7.7111 4.5621C7.78492 4.52821 7.84448 4.45831 7.88981 4.35241C7.93507 4.24652 7.95777 4.12368 7.95777 3.98389ZM4.33876 6.57945C4.28171 6.49686 4.20454 6.45556 4.10722 6.45556C3.94615 6.45556 3.80019 6.54557 3.66932 6.72559C3.53845 6.90562 3.47302 7.08883 3.47302 7.27521C3.47302 7.41076 3.50238 7.51242 3.5611 7.5802C3.61983 7.64793 3.69281 7.68184 3.78006 7.68184C3.93776 7.68184 4.08457 7.59396 4.22048 7.41817C4.35637 7.24238 4.42432 7.06765 4.42432 6.89397C4.42432 6.7669 4.3958 6.66205 4.33876 6.57945ZM1.34139 5.93772C1.28602 5.85088 1.21975 5.80746 1.14257 5.80746C1.03184 5.80746 0.930333 5.89006 0.838054 6.05526C0.745774 6.22046 0.699635 6.38566 0.699635 6.55086C0.699635 6.68218 0.724802 6.79549 0.775136 6.8908C0.82547 6.98611 0.892583 7.03376 0.976473 7.03376C1.09392 7.03376 1.19794 6.95857 1.28854 6.8082C1.37914 6.65782 1.42444 6.48521 1.42444 6.29035C1.42444 6.1421 1.39676 6.02455 1.34139 5.93772ZM8.76812 3.15153C8.76812 3.05834 8.75304 2.97151 8.7228 2.89102C8.69262 2.81054 8.65406 2.75971 8.60704 2.73853L8.50637 2.70676C8.49968 2.70676 8.49382 2.70464 8.48875 2.7004C8.48374 2.69617 8.47783 2.69405 8.47113 2.69405C8.42417 2.69405 8.38561 2.72794 8.35537 2.79571C8.3252 2.86349 8.31011 2.94609 8.31011 3.04352L8.31011 3.93941C8.31011 4.04531 8.32604 4.13215 8.35791 4.19993C8.38977 4.26769 8.42918 4.30158 8.4762 4.30158C8.4829 4.30158 8.48791 4.29946 8.49129 4.29523C8.49461 4.29099 8.49968 4.28887 8.50637 4.28887L8.60704 4.26346C8.654 4.25075 8.69262 4.20416 8.7228 4.12368C8.75304 4.04319 8.76812 3.95848 8.76812 3.86952ZM9.24123 3.22142C9.24123 3.14941 9.232 3.08694 9.21359 3.03399C9.19512 2.98104 9.17249 2.95033 9.14563 2.94185L9.06506 2.91644C9.03826 2.91644 9.0131 2.94079 8.98956 2.98951C8.96608 3.03822 8.95437 3.10282 8.95437 3.1833L8.95437 3.8441C8.95437 3.92035 8.96439 3.98177 8.98455 4.02837C9.00471 4.07496 9.02819 4.09826 9.05504 4.09826C9.06506 4.09826 9.07182 4.09614 9.07514 4.09191L9.14563 4.05378C9.17249 4.04108 9.19512 4.00613 9.21359 3.94894C9.232 3.89176 9.24123 3.82928 9.24123 3.7615ZM9.52314 3.25955C9.52314 3.20871 9.51807 3.16212 9.50805 3.11976C9.49797 3.07741 9.48451 3.05199 9.46774 3.04352L9.42247 3.03716C9.40569 3.03716 9.39223 3.05623 9.38222 3.09435C9.37214 3.13247 9.36707 3.17906 9.36707 3.23413L9.36707 3.72338C9.36707 3.78268 9.37214 3.82928 9.38222 3.86317C9.39223 3.89705 9.40738 3.914 9.42748 3.914L9.46774 3.89494C9.48451 3.88646 9.49797 3.85999 9.50805 3.81551C9.51807 3.77103 9.52314 3.72338 9.52314 3.67255ZM9.70432 3.27861C9.70432 3.24048 9.70094 3.20342 9.69424 3.16741C9.68754 3.13141 9.67915 3.11341 9.66907 3.11341L9.64391 3.10706C9.63383 3.10706 9.62381 3.12082 9.61373 3.14836C9.60365 3.17588 9.59864 3.21719 9.59864 3.27225L9.59864 3.65349C9.59864 3.70856 9.60365 3.74879 9.61373 3.77421C9.62381 3.79963 9.63383 3.81233 9.64391 3.81233L9.66907 3.79327C9.67915 3.79327 9.68754 3.77527 9.69424 3.73926C9.70094 3.70326 9.70432 3.66408 9.70432 3.62172Z"/>
 </g>
</svg>
